<svg version="1.0" xmlns="http://www.w3.org/2000/svg" width="177.333" height="177.333" viewBox="0 0 133 133"><path d="M61.2 2c-1.2 1.2-2.3 2.6-2.3 3.3-.1.7-.2 2.5-.4 4.2-1.2 13.6-2 17.7-4 22.8-3.1 7.8-7.9 13.8-14.4 18.2-7.4 4.8-13 6.4-29.4 8-6.9.7-9.4 2-10.2 5.4-.8 3.2 1.2 7.9 3.9 8.7 2.4.8 2.1.8 13 1.8 13.9 1.3 21.9 4.9 29.5 13.1 6.6 7.1 9.2 13.9 10.8 27.8.8 6.6 1.8 12.8 2.3 13.8 1.3 2.4 6.6 3.4 9.6 1.9 2.7-1.5 3.4-3 4-9 2.4-21.9 4.9-28.7 13.7-36.5 8.2-7.4 14.1-9.8 27.2-11 10.7-1 12.2-1.3 14.4-2.7 4.1-2.5 4-9.5-.1-11.6-2.7-1.4-5.2-1.8-15.5-2.7-4.3-.4-9.6-1.4-11.8-2.2-12.4-4.4-22.2-14.7-25.3-26.8-1-3.7-1.4-6.6-2.7-19.4-.8-8-7.3-11.7-12.3-7.1z"/></svg>